[Header]
FileType HTR
DataType HTRS
FileVersion 1
NumSegments 64
NumFrames 3
DataFrameRate 24
EulerRotationOrder ZYX
CalibrationUnits mm
RotationUnits Degrees
GlobalAxisofGravity Y
BoneLengthAxis Y
ScaleFactor 1.0
[SegmentNames&Hierarchy]
Hips	GLOBAL
Spine	Hips
Spine1	Spine
Spine2	Spine1
Neck	Spine2
Head	Neck
LeftEye	Head
RightEye	Head
LeftShoulder	Spine2
LeftArm	LeftShoulder
LeftForeArm	LeftArm
LeftHand	LeftForeArm
LeftHandThumb1	LeftHand
LeftHandThumb2	LeftHandThumb1
LeftHandThumb3	LeftHandThumb2
LeftHandThumb4	LeftHandThumb3
LeftHandIndex1	LeftHand
LeftHandIndex2	LeftHandIndex1
LeftHandIndex3	LeftHandIndex2
LeftHandIndex4	LeftHandIndex3
LeftHandMiddle1	LeftHand
LeftHandMiddle2	LeftHandMiddle1
LeftHandMiddle3	LeftHandMiddle2
LeftHandMiddle4	LeftHandMiddle3
LeftHandRing1	LeftHand
LeftHandRing2	LeftHandRing1
LeftHandRing3	LeftHandRing2
LeftHandRing4	LeftHandRing3
LeftHandPinky1	LeftHand
LeftHandPinky2	LeftHandPinky1
LeftHandPinky3	LeftHandPinky2
LeftHandPinky4	LeftHandPinky3
RightShoulder	Spine2
RightArm	RightShoulder
RightForeArm	RightArm
RightHand	RightForeArm
RightHandPinky1	RightHand
RightHandPinky2	RightHandPinky1
RightHandPinky3	RightHandPinky2
RightHandPinky4	RightHandPinky3
RightHandRing1	RightHand
RightHandRing2	RightHandRing1
RightHandRing3	RightHandRing2
RightHandRing4	RightHandRing3
RightHandMiddle1	RightHand
RightHandMiddle2	RightHandMiddle1
RightHandMiddle3	RightHandMiddle2
RightHandMiddle4	RightHandMiddle3
RightHandIndex1	RightHand
RightHandIndex2	RightHandIndex1
RightHandIndex3	RightHandIndex2
RightHandIndex4	RightHandIndex3
RightHandThumb1	RightHand
RightHandThumb2	RightHandThumb1
RightHandThumb3	RightHandThumb2
RightHandThumb4	RightHandThumb3
LeftUpLeg	Hips
LeftLeg	LeftUpLeg
LeftFoot	LeftLeg
LeftToeBase	LeftFoot
RightUpLeg	Hips
RightLeg	RightUpLeg
RightFoot	RightLeg
RightToeBase	RightFoot
[BasePosition]
Hips	0	0	0	0	0	0	1
Spine	0	0	0	0	0	0	1
Spine1	0	0	0	0	0	0	1
Spine2	0	0	0	0	0	0	1
Neck	0	0	0	0	0	0	1
Head	0	0	0	0	0	0	1
LeftEye	0	0	0	0	0	0	1
RightEye	0	0	0	0	0	0	1
LeftShoulder	0	0	0	0	0	0	1
LeftArm	0	0	0	0	0	0	1
LeftForeArm	0	0	0	0	0	0	1
LeftHand	0	0	0	0	0	0	1
LeftHandThumb1	0	0	0	0	0	0	1
LeftHandThumb2	0	0	0	0	0	0	1
LeftHandThumb3	0	0	0	0	0	0	1
LeftHandThumb4	0	0	0	0	0	0	1
LeftHandIndex1	0	0	0	0	0	0	1
LeftHandIndex2	0	0	0	0	0	0	1
LeftHandIndex3	0	0	0	0	0	0	1
LeftHandIndex4	0	0	0	0	0	0	1
LeftHandMiddle1	0	0	0	0	0	0	1
LeftHandMiddle2	0	0	0	0	0	0	1
LeftHandMiddle3	0	0	0	0	0	0	1
LeftHandMiddle4	0	0	0	0	0	0	1
LeftHandRing1	0	0	0	0	0	0	1
LeftHandRing2	0	0	0	0	0	0	1
LeftHandRing3	0	0	0	0	0	0	1
LeftHandRing4	0	0	0	0	0	0	1
LeftHandPinky1	0	0	0	0	0	0	1
LeftHandPinky2	0	0	0	0	0	0	1
LeftHandPinky3	0	0	0	0	0	0	1
LeftHandPinky4	0	0	0	0	0	0	1
RightShoulder	0	0	0	0	0	0	1
RightArm	0	0	0	0	0	0	1
RightForeArm	0	0	0	0	0	0	1
RightHand	0	0	0	0	0	0	1
RightHandPinky1	0	0	0	0	0	0	1
RightHandPinky2	0	0	0	0	0	0	1
RightHandPinky3	0	0	0	0	0	0	1
RightHandPinky4	0	0	0	0	0	0	1
RightHandRing1	0	0	0	0	0	0	1
RightHandRing2	0	0	0	0	0	0	1
RightHandRing3	0	0	0	0	0	0	1
RightHandRing4	0	0	0	0	0	0	1
RightHandMiddle1	0	0	0	0	0	0	1
RightHandMiddle2	0	0	0	0	0	0	1
RightHandMiddle3	0	0	0	0	0	0	1
RightHandMiddle4	0	0	0	0	0	0	1
RightHandIndex1	0	0	0	0	0	0	1
RightHandIndex2	0	0	0	0	0	0	1
RightHandIndex3	0	0	0	0	0	0	1
RightHandIndex4	0	0	0	0	0	0	1
RightHandThumb1	0	0	0	0	0	0	1
RightHandThumb2	0	0	0	0	0	0	1
RightHandThumb3	0	0	0	0	0	0	1
RightHandThumb4	0	0	0	0	0	0	1
LeftUpLeg	0	0	0	0	0	0	1
LeftLeg	0	0	0	0	0	0	1
LeftFoot	0	0	0	0	0	0	1
LeftToeBase	0	0	0	0	0	0	1
RightUpLeg	0	0	0	0	0	0	1
RightLeg	0	0	0	0	0	0	1
RightFoot	0	0	0	0	0	0	1
RightToeBase	0	0	0	0	0	0	1
[Hips]
6	-385.2559814	929.4729614	16.40357208	37.55167007	-83.60938263	-31.7728138	1.0
7	-462.9882507	922.2438965	15.08604145	14.68040657	-82.91371155	-8.442005157	1.0
8	-544.40802	918.0546875	13.86909008	0.01505431626	-79.74957275	6.546020508	1.0
[Spine]
6	0	101.8159943	1.315000057	4.849995136	21.85557556	0.2744909227	1.0
7	0	101.8159943	1.315000057	4.429856777	20.90292358	-2.220250607	1.0
8	0	101.8159943	1.315000057	4.066948891	19.7433567	-4.275939465	1.0
[Spine1]
6	0	100.8349991	-10.00800037	3.279185534	7.321205139	-0.5052463412	1.0
7	0	100.8349991	-10.00800037	3.248908281	7.25787878	-1.249124765	1.0
8	0	100.8349991	-10.00800037	3.203592777	6.864288807	-2.062904596	1.0
[Spine2]
6	0	91	-13.73399925	3.187673807	7.360643387	-0.5624935627	1.0
7	0	91	-13.73399925	3.156170368	7.293119431	-1.267618537	1.0
8	0	91	-13.73399925	3.117865086	6.89775753	-2.061967611	1.0
[Neck]
6	0	166.7169952	-25.16200066	3.870944262	5.820003033	1.634243488	1.0
7	0	166.7169952	-25.16200066	3.915660381	5.750672817	1.69332552	1.0
8	0	166.7169952	-25.16200066	3.966748714	5.565946579	1.804648638	1.0
[Head]
6	0	96.17900085	16.84999847	-14.03479862	35.09710312	-14.68787289	1.0
7	0	96.17900085	16.84999847	-14.69939137	34.48575592	-13.59155846	1.0
8	0	96.17900085	16.84999847	-14.06361961	33.34347534	-11.67653179	1.0
[LeftEye]
6	30.6760006	64.09500122	92.83599854	0	0	0	1.0
7	30.6760006	64.09500122	92.83599854	0	0	0	1.0
8	30.6760006	64.09500122	92.83599854	0	0	0	1.0
[RightEye]
6	-30.6760006	64.09500122	92.83499908	0	0	0	1.0
7	-30.6760006	64.09500122	92.83499908	0	0	0	1.0
8	-30.6760006	64.09500122	92.83499908	0	0	0	1.0
[LeftShoulder]
6	45.70400238	109.4599991	-26.28000069	1.255720139	7.356409073	-7.667682648	1.0
7	45.70400238	109.4599991	-26.28000069	1.173594594	6.773356915	-8.204556465	1.0
8	45.70400238	109.4599991	-26.28000069	1.096104145	5.640785217	-8.461560249	1.0
[LeftArm]
6	105.923996	-5.24600029	-22.32099915	14.0885849	3.276147842	-65.66291046	1.0
7	105.923996	-5.24600029	-22.32099915	14.61703968	2.364550591	-63.8228569	1.0
8	105.923996	-5.24600029	-22.32099915	15.30229092	1.252936721	-62.04603577	1.0
[LeftForeArm]
6	278.414978	-0.0009999999311	0	3.08089011e-06	-11.59192276	-0.0002013922931	1.0
7	278.414978	-0.0009999999311	0	-7.701015079e-07	-7.689658642	-0.0002003101108	1.0
8	278.414978	-0.0009999999311	0	6.32798583e-06	-6.10216713	-0.0002036298101	1.0
[LeftHand]
6	283.2879944	0	0	5.276938915	1.936254263	3.006432295	1.0
7	283.2879944	0	0	5.362749577	2.287605047	4.512114525	1.0
8	283.2879944	0	0	5.995276451	3.17948699	6.190193653	1.0
[LeftHandThumb1]
6	24.6609993	-15.75	26.8239994	30.58115005	-20.32058144	11.29641056	1.0
7	24.6609993	-15.75	26.8239994	30.58115005	-20.32058144	11.29641056	1.0
8	24.6609993	-15.75	26.8239994	30.58115005	-20.32058144	11.29641056	1.0
[LeftHandThumb2]
6	32.29800034	-18.64699936	18.64699936	12.66321087	20.7965126	-2.49281168	1.0
7	32.29800034	-18.64699936	18.64699936	13.05649853	21.41578674	-2.663334608	1.0
8	32.29800034	-18.64699936	18.64699936	13.38113403	19.0646553	-2.807818651	1.0
[LeftHandThumb3]
6	26.52600098	-15.31499958	15.31499958	-15.13882256	8.041276932	10.03098297	1.0
7	26.52600098	-15.31499958	15.31499958	-15.15652943	7.999671936	10.04358006	1.0
8	26.52600098	-15.31499958	15.31499958	-15.18142605	7.941164017	10.06127453	1.0
[LeftHandThumb4]
6	19.54599953	-11.28499985	11.28499985	0	0	0	1.0
7	19.54599953	-11.28499985	11.28499985	0	0	0	1.0
8	19.54599953	-11.28499985	11.28499985	0	0	0	1.0
[LeftHandIndex1]
6	91.09299469	-5.170999527	22.60099792	-1.19983387	-5.734088421	-23.2403965	1.0
7	91.09299469	-5.170999527	22.60099792	-1.243625045	-5.625382423	-23.84047508	1.0
8	91.09299469	-5.170999527	22.60099792	-1.40264535	-5.747810841	-25.4704895	1.0
[LeftHandIndex2]
6	36.76399994	0	0	-0.7109780908	2.792574167	-28.5627861	1.0
7	36.76399994	0	0	-0.709043026	2.789051294	-28.52316284	1.0
8	36.76399994	0	0	-0.7036016583	2.778998137	-28.4108429	1.0
[LeftHandIndex3]
6	28.83100128	0	0	-0.2912910879	1.821846008	-18.16638756	1.0
7	28.83100128	0	0	-0.2900172472	1.81795907	-18.12639809	1.0
8	28.83100128	0	0	-0.2864328027	1.806980848	-18.01302528	1.0
[LeftHandIndex4]
6	23.92700005	0	0	0	0	0	1.0
7	23.92700005	0	0	0	0	0	1.0
8	23.92700005	0	0	0	0	0	1.0
[LeftHandMiddle1]
6	95.33399963	0	0	-2.350677013	2.654770136	-35.00562286	1.0
7	95.33399963	0	0	-2.347065449	2.734797716	-34.96448517	1.0
8	95.33399963	0	0	-2.462906122	2.521496773	-36.21215057	1.0
[LeftHandMiddle2]
6	36.98199844	0	0	-0.5617158413	2.499236107	-25.33007431	1.0
7	36.98199844	0	0	-0.5587345362	2.492966652	-25.26183701	1.0
8	36.98199844	0	0	-0.5546354651	2.484277248	-25.16758919	1.0
[LeftHandMiddle3]
6	29.50900078	0	0	-0.3931032419	2.106818914	-21.13624573	1.0
7	29.50900078	0	0	-0.3905736506	2.100261688	-21.06711769	1.0
8	29.50900078	0	0	-0.3870922625	2.091187716	-20.97171783	1.0
[LeftHandMiddle4]
6	28.3390007	0	0	0	0	0	1.0
7	28.3390007	0	0	0	0	0	1.0
8	28.3390007	0	0	0	0	0	1.0
[LeftHandRing1]
6	91.04499817	-0.4390000105	-18.65100098	-2.068214178	3.649860859	-31.87078857	1.0
7	91.04499817	-0.4390000105	-18.65100098	-2.080226183	3.589389801	-32.00687027	1.0
8	91.04499817	-0.4390000105	-18.65100098	-2.174969435	3.270746231	-33.06600952	1.0
[LeftHandRing2]
6	31.54000092	0	0	-0.8472261429	3.029185534	-31.24510574	1.0
7	31.54000092	0	0	-0.8469953537	3.028795004	-31.2406311	1.0
8	31.54000092	0	0	-0.8486984968	3.031582832	-31.27290726	1.0
[LeftHandRing3]
6	29.37700081	0	0	-0.9430480003	3.181540489	-33.01405334	1.0
7	29.37700081	0	0	-0.9428020716	3.181150913	-33.00949478	1.0
8	29.37700081	0	0	-0.944626689	3.183947802	-33.041996	1.0
[LeftHandRing4]
6	26.47500038	0	0	0	0	0	1.0
7	26.47500038	0	0	0	0	0	1.0
8	26.47500038	0	0	0	0	0	1.0
[LeftHandPinky1]
6	80.77799988	-4.887000084	-38.06099701	-1.779607654	3.089137077	-28.38843155	1.0
7	80.77799988	-4.887000084	-38.06099701	-1.765177131	3.082142115	-28.21923447	1.0
8	80.77799988	-4.887000084	-38.06099701	-1.880053282	2.419568062	-29.57591438	1.0
[LeftHandPinky2]
6	36	0	0	-0.4652891159	2.284619093	-23.01971626	1.0
7	36	0	0	-0.4815104008	2.322402477	-23.42357826	1.0
8	36	0	0	-0.4783901274	2.315204382	-23.34660339	1.0
[LeftHandPinky3]
6	21.14200211	0	0	-0.5355985761	2.443395615	-24.72463417	1.0
7	21.14200211	0	0	-0.5445582271	2.46271944	-24.93378448	1.0
8	21.14200211	0	0	-0.5455873013	2.464921236	-24.95749474	1.0
[LeftHandPinky4]
6	19.75699997	0	0	0	0	0	1.0
7	19.75699997	0	0	0	0	0	1.0
8	19.75699997	0	0	0	0	0	1.0
[RightShoulder]
6	-45.70000076	109.4620056	-26.28000069	-2.468117237	10.40919495	9.522889137	1.0
7	-45.70000076	109.4620056	-26.28000069	-1.998785138	9.972218513	9.835309029	1.0
8	-45.70000076	109.4620056	-26.28000069	-1.394545794	9.451165199	10.04658318	1.0
[RightArm]
6	-105.9280014	-5.248000145	-22.32099915	37.95451736	29.1542244	55.58359909	1.0
7	-105.9280014	-5.248000145	-22.32099915	38.67956161	30.51498604	59.60898209	1.0
8	-105.9280014	-5.248000145	-22.32099915	38.28179932	30.298666	63.97204208	1.0
[RightForeArm]
6	-278.414978	0	0	-5.026254257e-06	22.84253883	-1.749647964e-07	1.0
7	-278.414978	0	0	-1.860529096e-06	21.45012283	-1.956429151e-05	1.0
8	-278.414978	0	0	-3.242113507e-06	19.35125542	-1.911909567e-05	1.0
[RightHand]
6	-283.2879944	0	0.0009999999311	-2.574218035	4.020215988	-22.61059189	1.0
7	-283.2879944	0	0.0009999999311	-4.344486713	7.487477779	-19.84108543	1.0
8	-283.2879944	0	0.0009999999311	-5.878569126	8.08300209	-16.40220833	1.0
[RightHandPinky1]
6	-80.76699829	-4.885000229	-38.06000137	-2.128877401	-2.846780062	35.30432892	1.0
7	-80.76699829	-4.885000229	-38.06000137	-2.250763178	-2.840779543	36.82486725	1.0
8	-80.76699829	-4.885000229	-38.06000137	-2.34016943	-2.72689414	37.92916489	1.0
[RightHandPinky2]
6	-36	0	0.0009999999311	-0.3851437867	-1.850618362	23.53063965	1.0
7	-36	0	0.0009999999311	-0.3804113269	-1.839691281	23.38339996	1.0
8	-36	0	0.0009999999311	-0.3811029196	-1.841313004	23.40526962	1.0
[RightHandPinky3]
6	-21.14200211	0	0	-0.1657753885	-1.229129314	15.36124706	1.0
7	-21.14200211	0	0	-0.1624893546	-1.217153192	15.20789623	1.0
8	-21.14200211	0	0	-0.1629867256	-1.218973756	15.23107719	1.0
[RightHandPinky4]
6	-19.75699997	0	0	0	0	0	1.0
7	-19.75699997	0	0	0	0	0	1.0
8	-19.75699997	0	0	0	0	0	1.0
[RightHandRing1]
6	-91.03599548	-0.4390000105	-18.65100098	-1.745712519	-6.217413902	30.37711143	1.0
7	-91.03599548	-0.4390000105	-18.65100098	-1.897311091	-6.71059227	32.36815262	1.0
8	-91.03599548	-0.4390000105	-18.65100098	-1.970442772	-7.112210751	33.31633759	1.0
[RightHandRing2]
6	-31.54000092	0	0	-0.369282037	-1.813738823	23.01467896	1.0
7	-31.54000092	0	0	-0.3683670461	-1.811586857	22.98590279	1.0
8	-31.54000092	0	0	-0.3698185086	-1.814997673	23.03176308	1.0
[RightHandRing3]
6	-29.37700081	0	0	-0.2649023235	-1.545218706	19.45446968	1.0
7	-29.37700081	0	0	-0.2640466988	-1.542789221	19.42265892	1.0
8	-29.37700081	0	0	-0.2652162611	-1.546141028	19.46645164	1.0
[RightHandRing4]
6	-26.47500038	0	0	0	0	0	1.0
7	-26.47500038	0	0	0	0	0	1.0
8	-26.47500038	0	0	0	0	0	1.0
[RightHandMiddle1]
6	-95.32500458	0	0	-1.660370827	-2.550178051	29.24577904	1.0
7	-95.32500458	0	0	-1.886178374	-3.396559954	32.20312881	1.0
8	-95.32500458	0	0	-1.975013733	-3.731310368	33.34161758	1.0
[RightHandMiddle2]
6	-36.98199844	0	0	-0.2409567833	-1.475718617	18.54624557	1.0
7	-36.98199844	0	0	-0.2418983579	-1.478519678	18.58276176	1.0
8	-36.98199844	0	0	-0.2414329499	-1.477146268	18.56483459	1.0
[RightHandMiddle3]
6	-29.50900078	0	0	-0.0866824165	-0.8947121501	11.09174252	1.0
7	-29.50900078	0	0	-0.08724986017	-0.8976041079	11.12820053	1.0
8	-29.50900078	0	0	-0.0869692415	-0.8961807489	11.11018181	1.0
[RightHandMiddle4]
6	-28.3390007	0	0.0009999999311	0	0	0	1.0
7	-28.3390007	0	0.0009999999311	0	0	0	1.0
8	-28.3390007	0	0.0009999999311	0	0	0	1.0
[RightHandIndex1]
6	-91.08300018	-5.167999744	22.60099792	-1.086708665	1.447238564	22.87159157	1.0
7	-91.08300018	-5.167999744	22.60099792	-1.131220698	-0.4453810453	26.27973747	1.0
8	-91.08300018	-5.167999744	22.60099792	-1.087819099	-1.294575453	27.48795509	1.0
[RightHandIndex2]
6	-36.76399994	0	0	-0.101712577	-0.9662115574	12.01827621	1.0
7	-36.76399994	0	0	-0.1025785655	-0.9703367352	12.07048321	1.0
8	-36.76399994	0	0	-0.102864176	-0.9716254473	12.08679867	1.0
[RightHandIndex3]
6	-28.83100128	0	0	-0.1058480367	-0.9854674339	12.26166916	1.0
7	-28.83100128	0	0	-0.1067450419	-0.9895202518	12.31291866	1.0
8	-28.83100128	0	0	-0.107015729	-0.99080199	12.32914257	1.0
[RightHandIndex4]
6	-23.92700005	0	0	0	0	0	1.0
7	-23.92700005	0	0	0	0	0	1.0
8	-23.92700005	0	0	0	0	0	1.0
[RightHandThumb1]
6	-24.64799881	-15.72700024	26.82600021	-0.1902875453	0.8218618631	0.3671384752	1.0
7	-24.64799881	-15.72700024	26.82600021	-0.1902875453	0.8218618631	0.3671384752	1.0
8	-24.64799881	-15.72700024	26.82600021	-0.1902875453	0.8218618631	0.3671384752	1.0
[RightHandThumb2]
6	-32.29800034	-18.64699936	18.64699936	13.72477341	-2.872759581	-18.43456841	1.0
7	-32.29800034	-18.64699936	18.64699936	17.55510902	-6.233246803	-18.86860085	1.0
8	-32.29800034	-18.64699936	18.64699936	18.91260719	-10.52742672	-20.40566063	1.0
[RightHandThumb3]
6	-26.52600098	-15.31399918	15.31399918	0.6253218055	6.135973454	-23.52697945	1.0
7	-26.52600098	-15.31399918	15.31399918	-1.136674881	10.02845001	-25.3493557	1.0
8	-26.52600098	-15.31399918	15.31399918	-2.178497314	12.20470142	-27.09595108	1.0
[RightHandThumb4]
6	-19.54599953	-11.28499985	11.28499985	0	0	0	1.0
7	-19.54599953	-11.28499985	11.28499985	0	0	0	1.0
8	-19.54599953	-11.28499985	11.28499985	0	0	0	1.0
[LeftUpLeg]
6	82.07800293	-67.51699829	-15.99599934	-46.72425842	2.462326765	0.4413147569	1.0
7	82.07800293	-67.51699829	-15.99599934	-46.68832779	-0.8563140035	-1.68273139	1.0
8	82.07800293	-67.51699829	-15.99599934	-49.21088791	-3.204555988	-3.519320488	1.0
[LeftLeg]
6	0	-443.7049866	2.845999956	17.76009178	5.560600281	2.376936436	1.0
7	0	-443.7049866	2.845999956	22.3868866	8.763748169	4.290910721	1.0
8	0	-443.7049866	2.845999956	36.81048584	7.301281452	6.356105804	1.0
[LeftFoot]
6	0	-444.2789917	-29.8219986	-4.849783897	-0.1512736827	1.60233283	1.0
7	0	-444.2789917	-29.8219986	16.77259254	0.964076221	4.308542252	1.0
8	0	-444.2789917	-29.8219986	5.996317387	1.234568715	3.145337105	1.0
[LeftToeBase]
6	0	-87.28699493	107.1060028	-11.0425663	1.898115079e-05	3.002857738e-06	1.0
7	0	-87.28699493	107.1060028	-12.32402515	-3.186064714e-05	-3.297156127e-06	1.0
8	0	-87.28699493	107.1060028	-5.374742031	-9.70867768e-06	1.11169436e-06	1.0
[RightUpLeg]
6	-82.07800293	-67.51699829	-15.99599934	9.912909508	-11.50395012	3.404626369	1.0
7	-82.07800293	-67.51699829	-15.99599934	16.25992584	-13.17192364	0.550681591	1.0
8	-82.07800293	-67.51699829	-15.99599934	14.96582413	-15.99171638	-2.676004171	1.0
[RightLeg]
6	0	-443.7049866	2.861999989	20.80128288	8.562560081	4.541152	1.0
7	0	-443.7049866	2.861999989	16.37559509	8.950069427	3.823897123	1.0
8	0	-443.7049866	2.861999989	25.01234627	8.842733383	5.24019146	1.0
[RightFoot]
6	0	-444.2770081	-29.83799934	-30.88857841	14.41730309	-19.26024818	1.0
7	0	-444.2770081	-29.83799934	-21.05364037	16.82423782	-19.91932487	1.0
8	0	-444.2770081	-29.83799934	-1.028733253	20.93162727	-8.499598503	1.0
[RightToeBase]
6	0	-87.28699493	107.1060028	-11.07696247	-3.417758853e-05	2.425452067e-06	1.0
7	0	-87.28699493	107.1060028	-21.74964714	-1.852389323e-05	7.150634246e-06	1.0
8	0	-87.28699493	107.1060028	-35.31420135	-5.440199852	-9.804574966	1.0
[EndOfFile]
